<mxfile host="app.diagrams.net" modified="2023-10-05T06:12:28.258Z" agent="Mozilla/5.0 (Windows NT 10.0; Win64; x64) AppleWebKit/537.36 (KHTML, like Gecko) Chrome/116.0.0.0 Safari/537.36 OPR/102.0.0.0" etag="lAAHEWODKuCB3piyon-X" version="22.0.2" type="github">
  <diagram name="Page-1" id="QW-x5YktU61WM0HeZbzb">
    <mxGraphModel dx="5135" dy="3595" grid="0" gridSize="10" guides="0" tooltips="1" connect="1" arrows="1" fold="1" page="0" pageScale="1" pageWidth="827" pageHeight="1169" math="0" shadow="0">
      <root>
        <mxCell id="0" />
        <mxCell id="1" parent="0" />
        <mxCell id="MGieSjNAxBvJKBpuXLMW-3" style="edgeStyle=orthogonalEdgeStyle;rounded=0;orthogonalLoop=1;jettySize=auto;html=1;entryX=0;entryY=0.5;entryDx=0;entryDy=0;" parent="1" source="MGieSjNAxBvJKBpuXLMW-1" target="MGieSjNAxBvJKBpuXLMW-2" edge="1">
          <mxGeometry relative="1" as="geometry" />
        </mxCell>
        <mxCell id="MGieSjNAxBvJKBpuXLMW-137" style="edgeStyle=orthogonalEdgeStyle;rounded=0;orthogonalLoop=1;jettySize=auto;html=1;entryX=0.5;entryY=0;entryDx=0;entryDy=0;" parent="1" source="MGieSjNAxBvJKBpuXLMW-1" target="MGieSjNAxBvJKBpuXLMW-5" edge="1">
          <mxGeometry relative="1" as="geometry" />
        </mxCell>
        <mxCell id="MGieSjNAxBvJKBpuXLMW-1" value="Start" style="ellipse;whiteSpace=wrap;html=1;aspect=fixed;" parent="1" vertex="1">
          <mxGeometry x="-660" y="-230" width="80" height="80" as="geometry" />
        </mxCell>
        <mxCell id="MGieSjNAxBvJKBpuXLMW-42" style="edgeStyle=orthogonalEdgeStyle;rounded=0;orthogonalLoop=1;jettySize=auto;html=1;entryX=0.5;entryY=1;entryDx=0;entryDy=0;" parent="1" source="MGieSjNAxBvJKBpuXLMW-2" target="MGieSjNAxBvJKBpuXLMW-26" edge="1">
          <mxGeometry relative="1" as="geometry">
            <Array as="points">
              <mxPoint x="320" y="-360" />
              <mxPoint x="190" y="-360" />
            </Array>
          </mxGeometry>
        </mxCell>
        <mxCell id="MGieSjNAxBvJKBpuXLMW-54" style="edgeStyle=orthogonalEdgeStyle;rounded=0;orthogonalLoop=1;jettySize=auto;html=1;" parent="1" source="MGieSjNAxBvJKBpuXLMW-2" target="MGieSjNAxBvJKBpuXLMW-53" edge="1">
          <mxGeometry relative="1" as="geometry" />
        </mxCell>
        <mxCell id="MGieSjNAxBvJKBpuXLMW-85" style="edgeStyle=orthogonalEdgeStyle;rounded=0;orthogonalLoop=1;jettySize=auto;html=1;entryX=0.5;entryY=0;entryDx=0;entryDy=0;" parent="1" source="MGieSjNAxBvJKBpuXLMW-2" target="MGieSjNAxBvJKBpuXLMW-84" edge="1">
          <mxGeometry relative="1" as="geometry" />
        </mxCell>
        <mxCell id="MGieSjNAxBvJKBpuXLMW-2" value="Dashboard" style="rounded=1;whiteSpace=wrap;html=1;" parent="1" vertex="1">
          <mxGeometry x="260" y="-220" width="120" height="60" as="geometry" />
        </mxCell>
        <mxCell id="MGieSjNAxBvJKBpuXLMW-5" value="Site Mapping" style="swimlane;fontStyle=0;childLayout=stackLayout;horizontal=1;startSize=26;fillColor=none;horizontalStack=0;resizeParent=1;resizeParentMax=0;resizeLast=0;collapsible=1;marginBottom=0;html=1;swimlaneLine=1;glass=0;" parent="1" vertex="1">
          <mxGeometry x="-692" y="-9" width="140" height="126" as="geometry" />
        </mxCell>
        <mxCell id="MGieSjNAxBvJKBpuXLMW-6" value="Home" style="text;strokeColor=none;fillColor=none;align=left;verticalAlign=top;spacingLeft=4;spacingRight=4;overflow=hidden;rotatable=0;points=[[0,0.5],[1,0.5]];portConstraint=eastwest;whiteSpace=wrap;html=1;" parent="MGieSjNAxBvJKBpuXLMW-5" vertex="1">
          <mxGeometry y="26" width="140" height="26" as="geometry" />
        </mxCell>
        <mxCell id="MGieSjNAxBvJKBpuXLMW-12" value="Tasks&lt;br&gt;" style="text;strokeColor=none;fillColor=none;align=left;verticalAlign=top;spacingLeft=4;spacingRight=4;overflow=hidden;rotatable=0;points=[[0,0.5],[1,0.5]];portConstraint=eastwest;whiteSpace=wrap;html=1;" parent="MGieSjNAxBvJKBpuXLMW-5" vertex="1">
          <mxGeometry y="52" width="140" height="26" as="geometry" />
        </mxCell>
        <mxCell id="MGieSjNAxBvJKBpuXLMW-7" value="Clients" style="text;strokeColor=none;fillColor=none;align=left;verticalAlign=top;spacingLeft=4;spacingRight=4;overflow=hidden;rotatable=0;points=[[0,0.5],[1,0.5]];portConstraint=eastwest;whiteSpace=wrap;html=1;" parent="MGieSjNAxBvJKBpuXLMW-5" vertex="1">
          <mxGeometry y="78" width="140" height="26" as="geometry" />
        </mxCell>
        <mxCell id="MGieSjNAxBvJKBpuXLMW-10" value="Workforce" style="text;strokeColor=none;fillColor=none;align=left;verticalAlign=top;spacingLeft=4;spacingRight=4;overflow=hidden;rotatable=0;points=[[0,0.5],[1,0.5]];portConstraint=eastwest;whiteSpace=wrap;html=1;" parent="MGieSjNAxBvJKBpuXLMW-5" vertex="1">
          <mxGeometry y="104" width="140" height="22" as="geometry" />
        </mxCell>
        <mxCell id="MGieSjNAxBvJKBpuXLMW-14" value="Returns to the main Dashboard" style="shape=process;whiteSpace=wrap;html=1;backgroundOutline=1;" parent="1" vertex="1">
          <mxGeometry x="-392" width="120" height="60" as="geometry" />
        </mxCell>
        <mxCell id="MGieSjNAxBvJKBpuXLMW-16" value="Shows the List of Clients in table&lt;br&gt;Features Such as Add Update Delete available&lt;br&gt;" style="shape=process;whiteSpace=wrap;html=1;backgroundOutline=1;" parent="1" vertex="1">
          <mxGeometry x="-392" y="81" width="220" height="60" as="geometry" />
        </mxCell>
        <mxCell id="MGieSjNAxBvJKBpuXLMW-17" style="edgeStyle=orthogonalEdgeStyle;rounded=0;orthogonalLoop=1;jettySize=auto;html=1;entryX=0;entryY=0.5;entryDx=0;entryDy=0;exitX=1;exitY=0.5;exitDx=0;exitDy=0;" parent="1" source="MGieSjNAxBvJKBpuXLMW-7" target="MGieSjNAxBvJKBpuXLMW-16" edge="1">
          <mxGeometry relative="1" as="geometry" />
        </mxCell>
        <mxCell id="MGieSjNAxBvJKBpuXLMW-13" style="edgeStyle=orthogonalEdgeStyle;rounded=0;orthogonalLoop=1;jettySize=auto;html=1;entryX=0;entryY=0.5;entryDx=0;entryDy=0;" parent="1" source="MGieSjNAxBvJKBpuXLMW-6" target="MGieSjNAxBvJKBpuXLMW-14" edge="1">
          <mxGeometry relative="1" as="geometry">
            <mxPoint x="-682" y="-270" as="targetPoint" />
          </mxGeometry>
        </mxCell>
        <mxCell id="MGieSjNAxBvJKBpuXLMW-18" value="Add Update Delete Task and Assign Task Features Available" style="shape=process;whiteSpace=wrap;html=1;backgroundOutline=1;" parent="1" vertex="1">
          <mxGeometry x="-1032" y="-17" width="180" height="60" as="geometry" />
        </mxCell>
        <mxCell id="MGieSjNAxBvJKBpuXLMW-19" style="edgeStyle=orthogonalEdgeStyle;rounded=0;orthogonalLoop=1;jettySize=auto;html=1;entryX=1;entryY=0.5;entryDx=0;entryDy=0;" parent="1" source="MGieSjNAxBvJKBpuXLMW-12" target="MGieSjNAxBvJKBpuXLMW-18" edge="1">
          <mxGeometry relative="1" as="geometry" />
        </mxCell>
        <mxCell id="MGieSjNAxBvJKBpuXLMW-21" value="&lt;b&gt;Work force&amp;nbsp;&lt;br&gt;&lt;/b&gt;&lt;div style=&quot;text-align: left;&quot;&gt;&lt;span style=&quot;background-color: initial;&quot;&gt;Administrators&lt;/span&gt;&lt;/div&gt;&lt;div style=&quot;text-align: left;&quot;&gt;&lt;span style=&quot;background-color: initial;&quot;&gt;Sub-Administrators&lt;/span&gt;&lt;/div&gt;&lt;div style=&quot;text-align: left;&quot;&gt;&lt;span style=&quot;background-color: initial;&quot;&gt;Validators&lt;/span&gt;&lt;/div&gt;&lt;div style=&quot;text-align: left;&quot;&gt;Representatives&lt;br&gt;&lt;/div&gt;" style="shape=process;whiteSpace=wrap;html=1;backgroundOutline=1;" parent="1" vertex="1">
          <mxGeometry x="-1052" y="66" width="200" height="80" as="geometry" />
        </mxCell>
        <mxCell id="MGieSjNAxBvJKBpuXLMW-22" style="edgeStyle=orthogonalEdgeStyle;rounded=0;orthogonalLoop=1;jettySize=auto;html=1;entryX=1;entryY=0.5;entryDx=0;entryDy=0;" parent="1" source="MGieSjNAxBvJKBpuXLMW-10" target="MGieSjNAxBvJKBpuXLMW-21" edge="1">
          <mxGeometry relative="1" as="geometry" />
        </mxCell>
        <mxCell id="MGieSjNAxBvJKBpuXLMW-26" value="Tasks" style="rounded=1;whiteSpace=wrap;html=1;" parent="1" vertex="1">
          <mxGeometry x="130" y="-609.87" width="120" height="60" as="geometry" />
        </mxCell>
        <mxCell id="MGieSjNAxBvJKBpuXLMW-115" style="edgeStyle=orthogonalEdgeStyle;rounded=0;orthogonalLoop=1;jettySize=auto;html=1;entryX=0.5;entryY=1;entryDx=0;entryDy=0;" parent="1" source="MGieSjNAxBvJKBpuXLMW-43" target="MGieSjNAxBvJKBpuXLMW-113" edge="1">
          <mxGeometry relative="1" as="geometry" />
        </mxCell>
        <mxCell id="MGieSjNAxBvJKBpuXLMW-124" style="edgeStyle=orthogonalEdgeStyle;rounded=0;orthogonalLoop=1;jettySize=auto;html=1;entryX=0;entryY=0.5;entryDx=0;entryDy=0;" parent="1" source="MGieSjNAxBvJKBpuXLMW-43" target="MGieSjNAxBvJKBpuXLMW-26" edge="1">
          <mxGeometry relative="1" as="geometry">
            <Array as="points">
              <mxPoint x="-5" y="-579.87" />
            </Array>
          </mxGeometry>
        </mxCell>
        <mxCell id="MGieSjNAxBvJKBpuXLMW-43" value="Add Tasks" style="shape=process;whiteSpace=wrap;html=1;backgroundOutline=1;" parent="1" vertex="1">
          <mxGeometry x="-65" y="-749.87" width="120" height="60" as="geometry" />
        </mxCell>
        <mxCell id="MGieSjNAxBvJKBpuXLMW-125" style="edgeStyle=orthogonalEdgeStyle;rounded=0;orthogonalLoop=1;jettySize=auto;html=1;entryX=0.25;entryY=0;entryDx=0;entryDy=0;" parent="1" source="MGieSjNAxBvJKBpuXLMW-44" target="MGieSjNAxBvJKBpuXLMW-26" edge="1">
          <mxGeometry relative="1" as="geometry" />
        </mxCell>
        <mxCell id="MGieSjNAxBvJKBpuXLMW-126" style="edgeStyle=orthogonalEdgeStyle;rounded=0;orthogonalLoop=1;jettySize=auto;html=1;entryX=1;entryY=0.5;entryDx=0;entryDy=0;" parent="1" source="MGieSjNAxBvJKBpuXLMW-44" target="MGieSjNAxBvJKBpuXLMW-113" edge="1">
          <mxGeometry relative="1" as="geometry" />
        </mxCell>
        <mxCell id="MGieSjNAxBvJKBpuXLMW-44" value="Update Tasks" style="shape=process;whiteSpace=wrap;html=1;backgroundOutline=1;" parent="1" vertex="1">
          <mxGeometry x="65" y="-749.87" width="120" height="60" as="geometry" />
        </mxCell>
        <mxCell id="MGieSjNAxBvJKBpuXLMW-122" style="edgeStyle=orthogonalEdgeStyle;rounded=0;orthogonalLoop=1;jettySize=auto;html=1;entryX=0.75;entryY=0;entryDx=0;entryDy=0;" parent="1" source="MGieSjNAxBvJKBpuXLMW-45" target="MGieSjNAxBvJKBpuXLMW-26" edge="1">
          <mxGeometry relative="1" as="geometry" />
        </mxCell>
        <mxCell id="MGieSjNAxBvJKBpuXLMW-128" style="edgeStyle=orthogonalEdgeStyle;rounded=0;orthogonalLoop=1;jettySize=auto;html=1;exitX=0.5;exitY=0;exitDx=0;exitDy=0;entryX=1;entryY=0.5;entryDx=0;entryDy=0;" parent="1" source="MGieSjNAxBvJKBpuXLMW-45" target="MGieSjNAxBvJKBpuXLMW-113" edge="1">
          <mxGeometry relative="1" as="geometry">
            <mxPoint x="303" y="-829.87" as="sourcePoint" />
            <mxPoint x="210" y="-1139.8700000000001" as="targetPoint" />
          </mxGeometry>
        </mxCell>
        <mxCell id="MGieSjNAxBvJKBpuXLMW-45" value="DeleteTasks" style="shape=process;whiteSpace=wrap;html=1;backgroundOutline=1;" parent="1" vertex="1">
          <mxGeometry x="198" y="-749.87" width="120" height="60" as="geometry" />
        </mxCell>
        <mxCell id="MGieSjNAxBvJKBpuXLMW-121" style="edgeStyle=orthogonalEdgeStyle;rounded=0;orthogonalLoop=1;jettySize=auto;html=1;entryX=1;entryY=0.25;entryDx=0;entryDy=0;" parent="1" source="MGieSjNAxBvJKBpuXLMW-46" target="MGieSjNAxBvJKBpuXLMW-26" edge="1">
          <mxGeometry relative="1" as="geometry">
            <Array as="points">
              <mxPoint x="385" y="-594.87" />
            </Array>
          </mxGeometry>
        </mxCell>
        <mxCell id="MGieSjNAxBvJKBpuXLMW-129" style="edgeStyle=orthogonalEdgeStyle;rounded=0;orthogonalLoop=1;jettySize=auto;html=1;entryX=1;entryY=0.5;entryDx=0;entryDy=0;" parent="1" source="MGieSjNAxBvJKBpuXLMW-46" target="MGieSjNAxBvJKBpuXLMW-113" edge="1">
          <mxGeometry relative="1" as="geometry">
            <Array as="points">
              <mxPoint x="390" y="-1029.8700000000001" />
            </Array>
          </mxGeometry>
        </mxCell>
        <mxCell id="MGieSjNAxBvJKBpuXLMW-46" value="Assign Tasks" style="shape=process;whiteSpace=wrap;html=1;backgroundOutline=1;" parent="1" vertex="1">
          <mxGeometry x="325" y="-749.87" width="120" height="60" as="geometry" />
        </mxCell>
        <mxCell id="MGieSjNAxBvJKBpuXLMW-53" value="Workforce" style="rounded=1;whiteSpace=wrap;html=1;" parent="1" vertex="1">
          <mxGeometry x="697" y="-423" width="120" height="60" as="geometry" />
        </mxCell>
        <mxCell id="MGieSjNAxBvJKBpuXLMW-62" style="edgeStyle=orthogonalEdgeStyle;rounded=0;orthogonalLoop=1;jettySize=auto;html=1;entryX=0.5;entryY=0;entryDx=0;entryDy=0;" parent="1" source="MGieSjNAxBvJKBpuXLMW-55" target="MGieSjNAxBvJKBpuXLMW-53" edge="1">
          <mxGeometry relative="1" as="geometry" />
        </mxCell>
        <mxCell id="MGieSjNAxBvJKBpuXLMW-55" value="Super Admin" style="shape=process;whiteSpace=wrap;html=1;backgroundOutline=1;" parent="1" vertex="1">
          <mxGeometry x="927" y="-493" width="120" height="60" as="geometry" />
        </mxCell>
        <mxCell id="MGieSjNAxBvJKBpuXLMW-66" style="edgeStyle=orthogonalEdgeStyle;rounded=0;orthogonalLoop=1;jettySize=auto;html=1;entryX=1;entryY=0.5;entryDx=0;entryDy=0;" parent="1" source="MGieSjNAxBvJKBpuXLMW-56" target="MGieSjNAxBvJKBpuXLMW-53" edge="1">
          <mxGeometry relative="1" as="geometry" />
        </mxCell>
        <mxCell id="MGieSjNAxBvJKBpuXLMW-56" value="Admin" style="shape=process;whiteSpace=wrap;html=1;backgroundOutline=1;" parent="1" vertex="1">
          <mxGeometry x="927" y="-423" width="120" height="60" as="geometry" />
        </mxCell>
        <mxCell id="MGieSjNAxBvJKBpuXLMW-64" style="edgeStyle=orthogonalEdgeStyle;rounded=0;orthogonalLoop=1;jettySize=auto;html=1;entryX=0.75;entryY=1;entryDx=0;entryDy=0;" parent="1" source="MGieSjNAxBvJKBpuXLMW-57" target="MGieSjNAxBvJKBpuXLMW-53" edge="1">
          <mxGeometry relative="1" as="geometry" />
        </mxCell>
        <mxCell id="MGieSjNAxBvJKBpuXLMW-57" value="Sub-Admin" style="shape=process;whiteSpace=wrap;html=1;backgroundOutline=1;" parent="1" vertex="1">
          <mxGeometry x="927" y="-353" width="120" height="60" as="geometry" />
        </mxCell>
        <mxCell id="MGieSjNAxBvJKBpuXLMW-67" style="edgeStyle=orthogonalEdgeStyle;rounded=0;orthogonalLoop=1;jettySize=auto;html=1;entryX=0.25;entryY=1;entryDx=0;entryDy=0;" parent="1" source="MGieSjNAxBvJKBpuXLMW-58" target="MGieSjNAxBvJKBpuXLMW-53" edge="1">
          <mxGeometry relative="1" as="geometry" />
        </mxCell>
        <mxCell id="-Is8Ez3iWAHtI2j2iVPo-5" value="" style="edgeStyle=orthogonalEdgeStyle;rounded=0;orthogonalLoop=1;jettySize=auto;html=1;" edge="1" parent="1" source="MGieSjNAxBvJKBpuXLMW-58" target="-Is8Ez3iWAHtI2j2iVPo-4">
          <mxGeometry relative="1" as="geometry" />
        </mxCell>
        <mxCell id="-Is8Ez3iWAHtI2j2iVPo-41" style="edgeStyle=orthogonalEdgeStyle;rounded=0;orthogonalLoop=1;jettySize=auto;html=1;entryX=0.5;entryY=1;entryDx=0;entryDy=0;" edge="1" parent="1" source="MGieSjNAxBvJKBpuXLMW-58" target="-Is8Ez3iWAHtI2j2iVPo-1">
          <mxGeometry relative="1" as="geometry">
            <Array as="points">
              <mxPoint x="1117" y="97" />
              <mxPoint x="1477" y="97" />
              <mxPoint x="1477" y="192" />
            </Array>
          </mxGeometry>
        </mxCell>
        <mxCell id="MGieSjNAxBvJKBpuXLMW-58" value="Representative" style="shape=process;whiteSpace=wrap;html=1;backgroundOutline=1;" parent="1" vertex="1">
          <mxGeometry x="1057" y="-53" width="120" height="60" as="geometry" />
        </mxCell>
        <mxCell id="MGieSjNAxBvJKBpuXLMW-65" style="edgeStyle=orthogonalEdgeStyle;rounded=0;orthogonalLoop=1;jettySize=auto;html=1;" parent="1" source="MGieSjNAxBvJKBpuXLMW-60" target="MGieSjNAxBvJKBpuXLMW-53" edge="1">
          <mxGeometry relative="1" as="geometry" />
        </mxCell>
        <mxCell id="MGieSjNAxBvJKBpuXLMW-60" value="Validators" style="shape=process;whiteSpace=wrap;html=1;backgroundOutline=1;" parent="1" vertex="1">
          <mxGeometry x="1047" y="-133" width="120" height="60" as="geometry" />
        </mxCell>
        <mxCell id="MGieSjNAxBvJKBpuXLMW-70" value="Sadaiyappan has Complete access and can do all the works with heavy insights" style="whiteSpace=wrap;html=1;rounded=1;arcSize=50;align=center;verticalAlign=middle;strokeWidth=1;autosize=1;spacing=4;treeFolding=1;treeMoving=1;newEdgeStyle={&quot;edgeStyle&quot;:&quot;entityRelationEdgeStyle&quot;,&quot;startArrow&quot;:&quot;none&quot;,&quot;endArrow&quot;:&quot;none&quot;,&quot;segment&quot;:10,&quot;curved&quot;:1,&quot;sourcePerimeterSpacing&quot;:0,&quot;targetPerimeterSpacing&quot;:0};" parent="1" vertex="1">
          <mxGeometry x="1147" y="-493" width="470" height="30" as="geometry" />
        </mxCell>
        <mxCell id="MGieSjNAxBvJKBpuXLMW-71" value="" style="edgeStyle=entityRelationEdgeStyle;startArrow=none;endArrow=none;segment=10;curved=1;sourcePerimeterSpacing=0;targetPerimeterSpacing=0;rounded=0;" parent="1" target="MGieSjNAxBvJKBpuXLMW-70" edge="1">
          <mxGeometry relative="1" as="geometry">
            <mxPoint x="1047" y="-458" as="sourcePoint" />
          </mxGeometry>
        </mxCell>
        <mxCell id="MGieSjNAxBvJKBpuXLMW-72" value="Similar to Sadaiyappan, no access to Adding Admin and Clients" style="whiteSpace=wrap;html=1;rounded=1;arcSize=50;align=center;verticalAlign=middle;strokeWidth=1;autosize=1;spacing=4;treeFolding=1;treeMoving=1;newEdgeStyle={&quot;edgeStyle&quot;:&quot;entityRelationEdgeStyle&quot;,&quot;startArrow&quot;:&quot;none&quot;,&quot;endArrow&quot;:&quot;none&quot;,&quot;segment&quot;:10,&quot;curved&quot;:1,&quot;sourcePerimeterSpacing&quot;:0,&quot;targetPerimeterSpacing&quot;:0};" parent="1" vertex="1">
          <mxGeometry x="1147" y="-433" width="380" height="30" as="geometry" />
        </mxCell>
        <mxCell id="MGieSjNAxBvJKBpuXLMW-73" value="" style="edgeStyle=entityRelationEdgeStyle;startArrow=none;endArrow=none;segment=10;curved=1;sourcePerimeterSpacing=0;targetPerimeterSpacing=0;rounded=0;" parent="1" target="MGieSjNAxBvJKBpuXLMW-72" edge="1">
          <mxGeometry relative="1" as="geometry">
            <mxPoint x="1047" y="-393" as="sourcePoint" />
          </mxGeometry>
        </mxCell>
        <mxCell id="MGieSjNAxBvJKBpuXLMW-76" value="Person who do the particular job the client is intended for" style="whiteSpace=wrap;html=1;rounded=1;arcSize=50;align=center;verticalAlign=middle;strokeWidth=1;autosize=1;spacing=4;treeFolding=1;treeMoving=1;newEdgeStyle={&quot;edgeStyle&quot;:&quot;entityRelationEdgeStyle&quot;,&quot;startArrow&quot;:&quot;none&quot;,&quot;endArrow&quot;:&quot;none&quot;,&quot;segment&quot;:10,&quot;curved&quot;:1,&quot;sourcePerimeterSpacing&quot;:0,&quot;targetPerimeterSpacing&quot;:0};glass=1;" parent="1" vertex="1">
          <mxGeometry x="1147" y="-363" width="350" height="30" as="geometry" />
        </mxCell>
        <mxCell id="MGieSjNAxBvJKBpuXLMW-77" value="" style="edgeStyle=entityRelationEdgeStyle;startArrow=none;endArrow=none;segment=10;curved=1;sourcePerimeterSpacing=0;targetPerimeterSpacing=0;rounded=0;" parent="1" target="MGieSjNAxBvJKBpuXLMW-76" edge="1">
          <mxGeometry relative="1" as="geometry">
            <mxPoint x="1047" y="-313" as="sourcePoint" />
          </mxGeometry>
        </mxCell>
        <mxCell id="MGieSjNAxBvJKBpuXLMW-78" value="Person who compare the value entered in the the and check it with the Bill" style="whiteSpace=wrap;html=1;rounded=1;arcSize=50;align=center;verticalAlign=middle;strokeWidth=1;autosize=1;spacing=4;treeFolding=1;treeMoving=1;newEdgeStyle={&quot;edgeStyle&quot;:&quot;entityRelationEdgeStyle&quot;,&quot;startArrow&quot;:&quot;none&quot;,&quot;endArrow&quot;:&quot;none&quot;,&quot;segment&quot;:10,&quot;curved&quot;:1,&quot;sourcePerimeterSpacing&quot;:0,&quot;targetPerimeterSpacing&quot;:0};" parent="1" vertex="1">
          <mxGeometry x="1207" y="-93" width="440" height="30" as="geometry" />
        </mxCell>
        <mxCell id="MGieSjNAxBvJKBpuXLMW-79" value="" style="edgeStyle=entityRelationEdgeStyle;startArrow=none;endArrow=none;segment=10;curved=1;sourcePerimeterSpacing=0;targetPerimeterSpacing=0;rounded=0;exitX=1;exitY=0.5;exitDx=0;exitDy=0;" parent="1" target="MGieSjNAxBvJKBpuXLMW-78" edge="1" source="MGieSjNAxBvJKBpuXLMW-60">
          <mxGeometry relative="1" as="geometry">
            <mxPoint x="1047" y="-251" as="sourcePoint" />
          </mxGeometry>
        </mxCell>
        <mxCell id="MGieSjNAxBvJKBpuXLMW-81" value="Person who visit the client Directly and collects the information&lt;br&gt;" style="whiteSpace=wrap;html=1;rounded=1;arcSize=50;align=center;verticalAlign=middle;strokeWidth=1;autosize=1;spacing=4;treeFolding=1;treeMoving=1;newEdgeStyle={&quot;edgeStyle&quot;:&quot;entityRelationEdgeStyle&quot;,&quot;startArrow&quot;:&quot;none&quot;,&quot;endArrow&quot;:&quot;none&quot;,&quot;segment&quot;:10,&quot;curved&quot;:1,&quot;sourcePerimeterSpacing&quot;:0,&quot;targetPerimeterSpacing&quot;:0};" parent="1" vertex="1">
          <mxGeometry x="1217" y="-3" width="380" height="30" as="geometry" />
        </mxCell>
        <mxCell id="MGieSjNAxBvJKBpuXLMW-82" value="" style="edgeStyle=entityRelationEdgeStyle;startArrow=none;endArrow=none;segment=10;curved=1;sourcePerimeterSpacing=0;targetPerimeterSpacing=0;rounded=0;exitX=1;exitY=0.5;exitDx=0;exitDy=0;entryX=0;entryY=0.5;entryDx=0;entryDy=0;" parent="1" target="MGieSjNAxBvJKBpuXLMW-81" edge="1" source="MGieSjNAxBvJKBpuXLMW-58">
          <mxGeometry relative="1" as="geometry">
            <mxPoint x="1237" y="-36" as="sourcePoint" />
            <mxPoint x="1537" y="-103" as="targetPoint" />
          </mxGeometry>
        </mxCell>
        <mxCell id="MGieSjNAxBvJKBpuXLMW-90" style="edgeStyle=orthogonalEdgeStyle;rounded=0;orthogonalLoop=1;jettySize=auto;html=1;entryX=0.5;entryY=0;entryDx=0;entryDy=0;" parent="1" source="MGieSjNAxBvJKBpuXLMW-84" target="MGieSjNAxBvJKBpuXLMW-86" edge="1">
          <mxGeometry relative="1" as="geometry" />
        </mxCell>
        <mxCell id="MGieSjNAxBvJKBpuXLMW-91" style="edgeStyle=orthogonalEdgeStyle;rounded=0;orthogonalLoop=1;jettySize=auto;html=1;entryX=0.5;entryY=0;entryDx=0;entryDy=0;" parent="1" source="MGieSjNAxBvJKBpuXLMW-84" target="MGieSjNAxBvJKBpuXLMW-87" edge="1">
          <mxGeometry relative="1" as="geometry" />
        </mxCell>
        <mxCell id="MGieSjNAxBvJKBpuXLMW-92" style="edgeStyle=orthogonalEdgeStyle;rounded=0;orthogonalLoop=1;jettySize=auto;html=1;entryX=0.5;entryY=0;entryDx=0;entryDy=0;" parent="1" source="MGieSjNAxBvJKBpuXLMW-84" target="MGieSjNAxBvJKBpuXLMW-88" edge="1">
          <mxGeometry relative="1" as="geometry" />
        </mxCell>
        <mxCell id="MGieSjNAxBvJKBpuXLMW-93" style="edgeStyle=orthogonalEdgeStyle;rounded=0;orthogonalLoop=1;jettySize=auto;html=1;" parent="1" source="MGieSjNAxBvJKBpuXLMW-84" target="MGieSjNAxBvJKBpuXLMW-89" edge="1">
          <mxGeometry relative="1" as="geometry" />
        </mxCell>
        <mxCell id="MGieSjNAxBvJKBpuXLMW-84" value="Clients" style="rounded=1;whiteSpace=wrap;html=1;" parent="1" vertex="1">
          <mxGeometry x="260" y="-80" width="120" height="60" as="geometry" />
        </mxCell>
        <mxCell id="MGieSjNAxBvJKBpuXLMW-105" style="edgeStyle=orthogonalEdgeStyle;rounded=0;orthogonalLoop=1;jettySize=auto;html=1;entryX=0.5;entryY=0;entryDx=0;entryDy=0;" parent="1" source="MGieSjNAxBvJKBpuXLMW-86" target="MGieSjNAxBvJKBpuXLMW-108" edge="1">
          <mxGeometry relative="1" as="geometry">
            <mxPoint x="181.80499999999984" y="177.05999999999995" as="targetPoint" />
          </mxGeometry>
        </mxCell>
        <mxCell id="MGieSjNAxBvJKBpuXLMW-86" value="Add Clients" style="shape=process;whiteSpace=wrap;html=1;backgroundOutline=1;" parent="1" vertex="1">
          <mxGeometry x="65" y="60" width="120" height="60" as="geometry" />
        </mxCell>
        <mxCell id="MGieSjNAxBvJKBpuXLMW-131" style="edgeStyle=orthogonalEdgeStyle;rounded=0;orthogonalLoop=1;jettySize=auto;html=1;entryX=1;entryY=0.5;entryDx=0;entryDy=0;" parent="1" source="MGieSjNAxBvJKBpuXLMW-87" target="MGieSjNAxBvJKBpuXLMW-108" edge="1">
          <mxGeometry relative="1" as="geometry" />
        </mxCell>
        <mxCell id="MGieSjNAxBvJKBpuXLMW-87" value="Update Clients" style="shape=process;whiteSpace=wrap;html=1;backgroundOutline=1;" parent="1" vertex="1">
          <mxGeometry x="195" y="60" width="120" height="60" as="geometry" />
        </mxCell>
        <mxCell id="MGieSjNAxBvJKBpuXLMW-133" style="edgeStyle=orthogonalEdgeStyle;rounded=0;orthogonalLoop=1;jettySize=auto;html=1;entryX=1;entryY=0.5;entryDx=0;entryDy=0;" parent="1" source="MGieSjNAxBvJKBpuXLMW-88" target="MGieSjNAxBvJKBpuXLMW-108" edge="1">
          <mxGeometry relative="1" as="geometry">
            <Array as="points">
              <mxPoint x="390" y="460" />
            </Array>
          </mxGeometry>
        </mxCell>
        <mxCell id="MGieSjNAxBvJKBpuXLMW-88" value="Delete Clients" style="shape=process;whiteSpace=wrap;html=1;backgroundOutline=1;" parent="1" vertex="1">
          <mxGeometry x="328" y="60" width="120" height="60" as="geometry" />
        </mxCell>
        <mxCell id="MGieSjNAxBvJKBpuXLMW-134" style="edgeStyle=orthogonalEdgeStyle;rounded=0;orthogonalLoop=1;jettySize=auto;html=1;entryX=1;entryY=0.5;entryDx=0;entryDy=0;" parent="1" source="MGieSjNAxBvJKBpuXLMW-89" target="MGieSjNAxBvJKBpuXLMW-108" edge="1">
          <mxGeometry relative="1" as="geometry">
            <Array as="points">
              <mxPoint x="515" y="460" />
            </Array>
          </mxGeometry>
        </mxCell>
        <mxCell id="MGieSjNAxBvJKBpuXLMW-89" value="Assign Representative" style="shape=process;whiteSpace=wrap;html=1;backgroundOutline=1;" parent="1" vertex="1">
          <mxGeometry x="455" y="60" width="120" height="60" as="geometry" />
        </mxCell>
        <mxCell id="MGieSjNAxBvJKBpuXLMW-111" style="edgeStyle=orthogonalEdgeStyle;rounded=0;orthogonalLoop=1;jettySize=auto;html=1;entryX=0.5;entryY=0;entryDx=0;entryDy=0;" parent="1" source="MGieSjNAxBvJKBpuXLMW-108" target="MGieSjNAxBvJKBpuXLMW-110" edge="1">
          <mxGeometry relative="1" as="geometry" />
        </mxCell>
        <mxCell id="MGieSjNAxBvJKBpuXLMW-108" value="Manual&lt;br&gt;Inputs" style="shape=manualInput;whiteSpace=wrap;html=1;" parent="1" vertex="1">
          <mxGeometry x="98" y="233" width="80" height="80" as="geometry" />
        </mxCell>
        <mxCell id="MGieSjNAxBvJKBpuXLMW-110" value="&lt;ol&gt;&lt;li&gt;Client Name&lt;/li&gt;&lt;li&gt;Client ID (auto)&lt;/li&gt;&lt;li&gt;Client Business Name&lt;/li&gt;&lt;li&gt;Business Type&lt;/li&gt;&lt;li&gt;Business Address&lt;/li&gt;&lt;li&gt;Business Email&lt;/li&gt;&lt;/ol&gt;" style="rounded=0;whiteSpace=wrap;html=1;align=left;" parent="1" vertex="1">
          <mxGeometry x="53" y="453" width="170" height="120" as="geometry" />
        </mxCell>
        <mxCell id="MGieSjNAxBvJKBpuXLMW-112" style="edgeStyle=orthogonalEdgeStyle;rounded=0;orthogonalLoop=1;jettySize=auto;html=1;entryX=0.5;entryY=0;entryDx=0;entryDy=0;" parent="1" source="MGieSjNAxBvJKBpuXLMW-113" target="MGieSjNAxBvJKBpuXLMW-114" edge="1">
          <mxGeometry relative="1" as="geometry" />
        </mxCell>
        <mxCell id="MGieSjNAxBvJKBpuXLMW-113" value="Manual&lt;br&gt;Inputs" style="shape=manualInput;whiteSpace=wrap;html=1;" parent="1" vertex="1">
          <mxGeometry x="25" y="-1069.8700000000001" width="80" height="80" as="geometry" />
        </mxCell>
        <mxCell id="MGieSjNAxBvJKBpuXLMW-114" value="&lt;ol&gt;&lt;li&gt;&lt;span style=&quot;background-color: initial;&quot;&gt;Task ID (auto)&lt;/span&gt;&lt;br&gt;&lt;/li&gt;&lt;li&gt;&lt;span style=&quot;background-color: initial;&quot;&gt;Task Type&lt;/span&gt;&lt;/li&gt;&lt;li&gt;&lt;span style=&quot;background-color: initial;&quot;&gt;Task Deadline&lt;/span&gt;&lt;/li&gt;&lt;li&gt;Client Name&lt;/li&gt;&lt;li&gt;Assigned Rep&lt;/li&gt;&lt;/ol&gt;" style="rounded=0;whiteSpace=wrap;html=1;align=left;" parent="1" vertex="1">
          <mxGeometry x="-210" y="-1099.8700000000001" width="170" height="120" as="geometry" />
        </mxCell>
        <mxCell id="MGieSjNAxBvJKBpuXLMW-120" style="edgeStyle=orthogonalEdgeStyle;rounded=0;orthogonalLoop=1;jettySize=auto;html=1;entryX=1;entryY=0.5;entryDx=0;entryDy=0;fontColor=none;noLabel=1;" parent="1" source="MGieSjNAxBvJKBpuXLMW-116" target="MGieSjNAxBvJKBpuXLMW-26" edge="1">
          <mxGeometry relative="1" as="geometry">
            <Array as="points">
              <mxPoint x="520" y="-579.87" />
            </Array>
          </mxGeometry>
        </mxCell>
        <mxCell id="MGieSjNAxBvJKBpuXLMW-130" style="edgeStyle=orthogonalEdgeStyle;rounded=0;orthogonalLoop=1;jettySize=auto;html=1;entryX=1;entryY=0.5;entryDx=0;entryDy=0;" parent="1" source="MGieSjNAxBvJKBpuXLMW-116" target="MGieSjNAxBvJKBpuXLMW-113" edge="1">
          <mxGeometry relative="1" as="geometry">
            <Array as="points">
              <mxPoint x="520" y="-1029.8700000000001" />
            </Array>
          </mxGeometry>
        </mxCell>
        <mxCell id="MGieSjNAxBvJKBpuXLMW-116" value="Assign Tasks" style="shape=process;whiteSpace=wrap;html=1;backgroundOutline=1;" parent="1" vertex="1">
          <mxGeometry x="460" y="-749.87" width="120" height="60" as="geometry" />
        </mxCell>
        <mxCell id="-Is8Ez3iWAHtI2j2iVPo-1" value="Takes Image of the Bill&lt;br&gt;&lt;br&gt;Image Name :&amp;nbsp; Bill No" style="whiteSpace=wrap;html=1;direction=south;" vertex="1" parent="1">
          <mxGeometry x="1777" y="157" width="100" height="70" as="geometry" />
        </mxCell>
        <mxCell id="-Is8Ez3iWAHtI2j2iVPo-28" style="edgeStyle=orthogonalEdgeStyle;rounded=0;orthogonalLoop=1;jettySize=auto;html=1;entryX=0.5;entryY=0;entryDx=0;entryDy=0;" edge="1" parent="1" source="-Is8Ez3iWAHtI2j2iVPo-4" target="-Is8Ez3iWAHtI2j2iVPo-6">
          <mxGeometry relative="1" as="geometry" />
        </mxCell>
        <mxCell id="-Is8Ez3iWAHtI2j2iVPo-29" style="edgeStyle=orthogonalEdgeStyle;rounded=0;orthogonalLoop=1;jettySize=auto;html=1;entryX=0.5;entryY=0;entryDx=0;entryDy=0;" edge="1" parent="1" source="-Is8Ez3iWAHtI2j2iVPo-4" target="-Is8Ez3iWAHtI2j2iVPo-9">
          <mxGeometry relative="1" as="geometry" />
        </mxCell>
        <mxCell id="-Is8Ez3iWAHtI2j2iVPo-30" style="edgeStyle=orthogonalEdgeStyle;rounded=0;orthogonalLoop=1;jettySize=auto;html=1;entryX=0.5;entryY=0;entryDx=0;entryDy=0;" edge="1" parent="1" source="-Is8Ez3iWAHtI2j2iVPo-4" target="-Is8Ez3iWAHtI2j2iVPo-15">
          <mxGeometry relative="1" as="geometry" />
        </mxCell>
        <mxCell id="-Is8Ez3iWAHtI2j2iVPo-4" value="Enters the Details of the bills&lt;br&gt;" style="whiteSpace=wrap;html=1;align=left;" vertex="1" parent="1">
          <mxGeometry x="1217" y="207" width="120" height="30" as="geometry" />
        </mxCell>
        <mxCell id="-Is8Ez3iWAHtI2j2iVPo-31" style="edgeStyle=orthogonalEdgeStyle;rounded=0;orthogonalLoop=1;jettySize=auto;html=1;entryX=0.5;entryY=1;entryDx=0;entryDy=0;" edge="1" parent="1" source="-Is8Ez3iWAHtI2j2iVPo-6" target="-Is8Ez3iWAHtI2j2iVPo-17">
          <mxGeometry relative="1" as="geometry" />
        </mxCell>
        <mxCell id="-Is8Ez3iWAHtI2j2iVPo-6" value="Purchase" style="whiteSpace=wrap;html=1;align=center;" vertex="1" parent="1">
          <mxGeometry x="1377" y="257" width="120" height="20" as="geometry" />
        </mxCell>
        <mxCell id="-Is8Ez3iWAHtI2j2iVPo-32" style="edgeStyle=orthogonalEdgeStyle;rounded=0;orthogonalLoop=1;jettySize=auto;html=1;entryX=0.5;entryY=1;entryDx=0;entryDy=0;" edge="1" parent="1" source="-Is8Ez3iWAHtI2j2iVPo-9" target="-Is8Ez3iWAHtI2j2iVPo-17">
          <mxGeometry relative="1" as="geometry" />
        </mxCell>
        <mxCell id="-Is8Ez3iWAHtI2j2iVPo-9" value="Sales" style="whiteSpace=wrap;html=1;align=center;" vertex="1" parent="1">
          <mxGeometry x="1507" y="257" width="120" height="20" as="geometry" />
        </mxCell>
        <mxCell id="-Is8Ez3iWAHtI2j2iVPo-15" value="Expense" style="rounded=0;whiteSpace=wrap;html=1;" vertex="1" parent="1">
          <mxGeometry x="1637" y="257" width="120" height="20" as="geometry" />
        </mxCell>
        <mxCell id="-Is8Ez3iWAHtI2j2iVPo-17" value="Details&lt;br&gt;&lt;ol&gt;&lt;li style=&quot;text-align: left;&quot;&gt;Name of the Business (billed to/from)&lt;/li&gt;&lt;li style=&quot;text-align: left;&quot;&gt;GST no&lt;/li&gt;&lt;li style=&quot;text-align: left;&quot;&gt;Invoice No&lt;/li&gt;&lt;li style=&quot;text-align: left;&quot;&gt;Date&lt;/li&gt;&lt;li style=&quot;text-align: left;&quot;&gt;Net Amount&lt;/li&gt;&lt;li style=&quot;text-align: left;&quot;&gt;Gross Amount&lt;/li&gt;&lt;li style=&quot;text-align: left;&quot;&gt;TAX&lt;/li&gt;&lt;ol&gt;&lt;li style=&quot;text-align: left;&quot;&gt;CGST&lt;/li&gt;&lt;li style=&quot;text-align: left;&quot;&gt;SGST&lt;/li&gt;&lt;li style=&quot;text-align: left;&quot;&gt;IGST&lt;/li&gt;&lt;/ol&gt;&lt;/ol&gt;" style="rounded=1;whiteSpace=wrap;html=1;" vertex="1" parent="1">
          <mxGeometry x="1997" y="7" width="210" height="200" as="geometry" />
        </mxCell>
        <mxCell id="-Is8Ez3iWAHtI2j2iVPo-38" style="edgeStyle=orthogonalEdgeStyle;rounded=0;orthogonalLoop=1;jettySize=auto;html=1;entryX=1;entryY=0.5;entryDx=0;entryDy=0;exitX=0.5;exitY=0;exitDx=0;exitDy=0;exitPerimeter=0;" edge="1" parent="1" source="-Is8Ez3iWAHtI2j2iVPo-34" target="MGieSjNAxBvJKBpuXLMW-57">
          <mxGeometry relative="1" as="geometry">
            <Array as="points">
              <mxPoint x="1427" y="-253" />
              <mxPoint x="1427" y="-323" />
            </Array>
          </mxGeometry>
        </mxCell>
        <mxCell id="-Is8Ez3iWAHtI2j2iVPo-39" value="&lt;b&gt;Correct&lt;/b&gt;" style="edgeLabel;html=1;align=center;verticalAlign=middle;resizable=0;points=[];" vertex="1" connectable="0" parent="-Is8Ez3iWAHtI2j2iVPo-38">
          <mxGeometry x="-0.6992" y="1" relative="1" as="geometry">
            <mxPoint as="offset" />
          </mxGeometry>
        </mxCell>
        <mxCell id="-Is8Ez3iWAHtI2j2iVPo-34" value="Check the values are correct" style="strokeWidth=2;html=1;shape=mxgraph.flowchart.decision;whiteSpace=wrap;" vertex="1" parent="1">
          <mxGeometry x="1807" y="-253" width="130" height="140" as="geometry" />
        </mxCell>
        <mxCell id="-Is8Ez3iWAHtI2j2iVPo-35" style="edgeStyle=orthogonalEdgeStyle;rounded=0;orthogonalLoop=1;jettySize=auto;html=1;entryX=0.5;entryY=1;entryDx=0;entryDy=0;entryPerimeter=0;" edge="1" parent="1" source="-Is8Ez3iWAHtI2j2iVPo-1" target="-Is8Ez3iWAHtI2j2iVPo-34">
          <mxGeometry relative="1" as="geometry">
            <Array as="points">
              <mxPoint x="1827" y="107" />
              <mxPoint x="1872" y="107" />
            </Array>
          </mxGeometry>
        </mxCell>
        <mxCell id="-Is8Ez3iWAHtI2j2iVPo-36" style="edgeStyle=orthogonalEdgeStyle;rounded=0;orthogonalLoop=1;jettySize=auto;html=1;" edge="1" parent="1" source="-Is8Ez3iWAHtI2j2iVPo-17">
          <mxGeometry relative="1" as="geometry">
            <mxPoint x="1872" y="-113" as="targetPoint" />
          </mxGeometry>
        </mxCell>
        <mxCell id="-Is8Ez3iWAHtI2j2iVPo-37" style="edgeStyle=orthogonalEdgeStyle;rounded=0;orthogonalLoop=1;jettySize=auto;html=1;entryX=0;entryY=0.5;entryDx=0;entryDy=0;entryPerimeter=0;" edge="1" parent="1" source="MGieSjNAxBvJKBpuXLMW-60" target="-Is8Ez3iWAHtI2j2iVPo-34">
          <mxGeometry relative="1" as="geometry" />
        </mxCell>
      </root>
    </mxGraphModel>
  </diagram>
</mxfile>
